<svg xmlns="http://www.w3.org/2000/svg" viewBox="0 0 125 125"><title>Artboard 4</title><g id="person_10" data-name="person 10"><g id="neck"><path d="M53.93,69.67s-.47,6.17-1.41,8.42-12.13,4.8-12.13,4.8-1.41,1.39-.72,2.69,17,7.33,26.71,6.72,22.24-5.75,23.7-6.72.6-1.69.6-1.69-13.19-2.69-14.53-5.1S75,69.35,75,69.35Z" fill="#d19a75" stroke="#020202" stroke-miterlimit="10" stroke-width="0.75"/></g><g id="shirt"><path d="M118.73,131.65s-6.2-13-7.06-16.26.21-15.44-.3-18.64-1.47-7.13-2.57-9.12-4.51-5.83-5.58-6-1.29-.35-2,0a11.44,11.44,0,0,0-1.72,1.27L90.08,83s-13.34,6.6-25.71,6.77-24.7-7.33-24.7-7.33l-9,2.16a10.36,10.36,0,0,0-3.95-1.31,4,4,0,0,0-3.33,2.25c-1,2-1.4,3.33-3.46,11.17s1.12,15.72.38,20.21-4.21,14.69-4.21,14.69" fill="#f7de48" stroke="#020202" stroke-miterlimit="10" stroke-width="0.75"/><path d="M98.18,92.3s.36-8,1.35-9.41" fill="none" stroke="#000" stroke-miterlimit="10" stroke-width="0.75"/><path d="M33.42,92.3s-.79-5.5-2.7-7.66" fill="none" stroke="#000" stroke-miterlimit="10" stroke-width="0.75"/><path d="M97.38,105.54c-2.63-.69-.65,3.64-.24,4.56.88,1.9,2.17,3.67,2.64,5.74,1.31,5.75-4.42,9.83-5.2,15.52" fill="none" stroke="#000" stroke-miterlimit="10" stroke-width="0.75"/><path d="M38.07,107.23c2.62-.69.65,3.65.23,4.56-.87,1.91-2.17,3.67-2.64,5.74-1.31,5.76,4.64,8.49,5.93,14.12" fill="none" stroke="#000" stroke-miterlimit="10" stroke-width="0.75"/></g><path id="iphone" d="M63.57,112.16c-.19-3.47-.35-6.94-.5-10.42-.11-2.62-.21-5.24-.27-7.86,0-1.92-.67-5.23,1.09-6.65.93-.75,2.51-.5,3.67-.51,3.1,0,6.25.22,9.35,0,1,0,2.63-.35,3.54.23,1.19.78.78,2.67.87,4,.2,2.86.33,5.72.44,8.59,0,0,.89,23.93.88,24.45-.07,3.65-2.82,3-5.66,3-2.4,0-4.81,0-7.21-.12-1.62-.06-3.86.45-5.22-.84-1.21-1.17-.94-3.35-.9-4.89Z" fill="#23211b" stroke="#000" stroke-miterlimit="10" stroke-width="0.75"/><g id="Layer_83" data-name="Layer 83"><path id="hand" d="M96.46,131.65a21.14,21.14,0,0,0-2.58-1.42c-1.59-.75-8.55-5.84-8.55-5.84s.55-9.2.2-10.46a48.52,48.52,0,0,0-2.82-6.81c-.69-1.08-.8-1.6-1.81-1.88s-9.47-.3-9.81-.25-1.14.26-1.14.26-1.37-.07-1.4.19-.06,1.81.13,1.88a7.78,7.78,0,0,1,1.43.12c.32.16.71.68,1.22.78s7.27.31,7.38.6a8.82,8.82,0,0,1,.81,2.84c0,.85,0,1.31,0,1.31a34,34,0,0,0-5-1.15c-1.18,0-8.9-.14-9.52.06s-.85.67-1.17.64-1.34-.36-1.48,0-.52,2.09-.27,2.1,1.51.16,1.51.16.12.51.52.52.64,0,.64,0a7.75,7.75,0,0,0-1.8.25c-.11.16-.25.33-.42.35s-1.23,0-1.32.12a6,6,0,0,0-.17,1.56c0,.21,1,.24,1.13.25s.11.37.24.55a17.45,17.45,0,0,0,3,.24s-1,.06-1.07.33,0,.39-.18.41-.91-.13-1,0-.29,1.53-.1,1.59,1.44.06,1.51.14,0,.49.1.59,3.06.13,4.24.28,4.93,1.73,5.37,3.24.53,3,1.17,4.72,1.28,1.75,1.28,1.75" fill="#d19a75" stroke="#020202" stroke-miterlimit="10" stroke-width="0.75"/><path d="M77.89,117.15s-4-1.83-5.6-1.93-7.93,0-7.93,0" fill="none" stroke="#000" stroke-miterlimit="10" stroke-width="0.75"/><path d="M75.29,120.4a23.17,23.17,0,0,0-4.49-1.55,24.77,24.77,0,0,0-5.41-.2" fill="none" stroke="#000" stroke-miterlimit="10" stroke-width="0.75"/></g><polygon points="74.36 96.61 66.95 94.97 73.05 93.32 69.41 85.98 77.25 89.98 79.52 80.12 81.44 88.92 86.73 86.88 82.52 93.49 89.24 99.25 78.28 96.54 74.29 102.11 74.36 96.61" fill="#fff"/><path d="M79.51,81.83,81,88.57l.19.86.82-.32,3.81-1.47L82.37,93l-.35.55.5.42,5.27,4.52-9.17-2.26-.5-.13-.29.42-3.15,4.39,0-4v-.61l-.59-.13-5.62-1.25,4.19-1.13.88-.24-.41-.82-2.93-5.91,6.4,3.27.86.44.22-.94,1.78-7.77m0-3.42L77,89.43l-8.43-4.3,3.94,8L65.39,95,74,96.91l-.08,6.39L78.44,97l12.24,3L83,93.41l4.65-7.3-5.94,2.3-2.2-10Z"/><path d="M117.65,31.36s-10.09,5-14.37,7.86S47.88,49.67,38,47.75,8.76,43,7.25,45s-1.36,2.7-.37,5.28,5.53,10.6,14.47,12.53,31.31,2.39,42.7,1.39S81.76,61.81,88.87,58s14.43-8.27,17.69-11.14,6.85-5.34,9.56-8.82A8.8,8.8,0,0,0,118,34C118.05,33.61,118.6,30.88,117.65,31.36Z" fill="#d1cdb0" stroke="#020202" stroke-miterlimit="10" stroke-width="0.75"/><path id="head-3" data-name="head" d="M43.58,51.9s2.33,12.6,8,16.88,7.94,7.91,14,7.91S76.86,67.76,80,61s4.38-13,3.93-16.49S78,19.11,63.13,19.08C44,19,42.47,41.8,43.58,51.9Z" fill="#d19a75" stroke="#020202" stroke-miterlimit="10" stroke-width="0.75"/><path id="nose-4" data-name="nose" d="M68.38,54.39c.72,1.76,4.79,4.49,4.27,5.41s-8.57-.35-8.58-1" fill="none" stroke="#000" stroke-miterlimit="10" stroke-width="0.75"/><g id="hair-4" data-name="hair"><path d="M53.64,72.25l-10.29.68c-.41.06-2.39-6-2.6-6.6-1.87-5.77-1.87-8.1-1.79-14.12l0-1.2,4.64.66s1.34,7.95,3.54,11.42a26,26,0,0,0,3.64,5c.78.79,3,2.66,3,2.66Z" fill="#fff" stroke="#000" stroke-miterlimit="10" stroke-width="0.75"/><path d="M75,72l8.46.85c.4.07,2.39-5.94,2.6-6.6C88,60.46,88,58.13,87.89,52.11l0-1.19-4.64.65A78.1,78.1,0,0,1,79.66,62.2a36,36,0,0,1-2.78,5.21c-.58,1-1.85,2.91-1.85,2.91Z" fill="#fff" stroke="#000" stroke-miterlimit="10" stroke-width="0.75"/></g><circle id="beauty_mark" data-name="beauty mark" cx="72.65" cy="63.35" r="0.69" fill="#020202" stroke="#020202" stroke-miterlimit="10" stroke-width="0.75"/><path id="mouth-4" data-name="mouth" d="M64.9,68.3c-.49,1.35-1.23,1.11-3.55.26s-4.84-1.62-4.35-3,3.25-2.16,5.57-1.31S65.4,67,64.9,68.3Z" fill="#fff" stroke="#000" stroke-miterlimit="10" stroke-width="0.75"/><g id="diamond_ring" data-name="diamond ring"><polygon points="71.59 119.46 70.82 117.75 71.6 115.22 73.28 114.93 76.72 116.14 77.49 117.96 76.82 120.09 74.9 120.92 71.59 119.46" fill="#fff"/><path d="M73.25,115.31l3.19,1.12.65,1.55-.57,1.84-1.62.69-3-1.34-.65-1.45.67-2.17,1.36-.24m.07-.77-2,.35-.89,2.88.89,2,3.59,1.59,2.23-1,.76-2.43-.89-2.1-3.68-1.3Z"/></g><g id="nails"><path d="M64.66,114.61a.18.18,0,0,1-.13,0c-.6,0-1.39-.25-2-.29a.21.21,0,0,1-.12,0,.15.15,0,0,1,0-.13,2.81,2.81,0,0,1,.33-1.49,1.9,1.9,0,0,1,.67,0c.42,0,.92.12,1.34.2a.13.13,0,0,1,.12,0,.19.19,0,0,1,0,.13c0,.48-.14.92-.17,1.39A.16.16,0,0,1,64.66,114.61Z" fill="#fce8ea"/><path d="M63.4,117.76s-.07,0-.1,0c-.52,0-1.2-.15-1.71-.16a.14.14,0,0,1-.11,0,.16.16,0,0,1,0-.1,2.56,2.56,0,0,1,.22-1.29,1.61,1.61,0,0,1,.58,0,11.65,11.65,0,0,1,1.16.11.12.12,0,0,1,.1,0,.14.14,0,0,1,0,.11c0,.41-.08.79-.09,1.2C63.43,117.7,63.43,117.74,63.4,117.76Z" fill="#fce8ea"/><path d="M70.74,107.05a.15.15,0,0,1-.1,0c-.47,0-1.12,0-1.6,0,0,0-.07,0-.1,0a.17.17,0,0,1-.06-.1,2.24,2.24,0,0,1,.1-1.21,1.55,1.55,0,0,1,.53-.07c.34,0,.75,0,1.09,0a.29.29,0,0,1,.1,0,.21.21,0,0,1,0,.11c0,.37,0,.74,0,1.12A.18.18,0,0,1,70.74,107.05Z" fill="#fce8ea"/><path d="M64.71,120.62s0,0-.07,0c-.38,0-.9-.06-1.28-.05a.06.06,0,0,1-.07,0,.09.09,0,0,1,0-.08,1.85,1.85,0,0,1,.1-1,1.18,1.18,0,0,1,.42,0,8.33,8.33,0,0,1,.87,0,.11.11,0,0,1,.08,0,.13.13,0,0,1,0,.09c0,.29,0,.58,0,.88A.11.11,0,0,1,64.71,120.62Z" fill="#fce8ea"/></g><g id="hat-2" data-name="hat"><path d="M40.62,39.48c.75-.14,3.23-9.6,3.71-10.81A36.86,36.86,0,0,1,50.1,18.18c6-7,15-5.72,22-1.55a24.84,24.84,0,0,1,8.18,7.59c.51.79,3.79,7.38,4.7,7.22Z" fill="#f9f7e1" stroke="#020202" stroke-miterlimit="10" stroke-width="0.75"/><path d="M8.42,44.92S31.51,40,35.82,38.59s20.38-10.05,29.56-10,11.28,1.11,23.15,2,28.59.89,29.35.48-4.22,4.36-7.23,6.92S86.54,56.3,72,55s-49.15-6.3-54.14-7.32A67.4,67.4,0,0,1,8.42,44.92Z" fill="#f9f7e1" stroke="#020202" stroke-miterlimit="10" stroke-width="0.75"/></g></g></svg>