<svg xmlns="http://www.w3.org/2000/svg" viewBox="0 0 125 125"><title>Artboard 25 copy 5</title><g id="Layer_138_copy" data-name="Layer 138 copy"><path id="neck-2" data-name="neck" d="M76.31,80.37s-.67-.29-.67-.88V72.82l-26,1.29S50,82,49.36,82.7c0,0-3.1,2.27-2.2,4.15,1.86,3.92,7.21,6.28,11.27,6.93,5,.8,12.63,0,17-2.81C78.27,89.15,80.15,82.06,76.31,80.37Z" fill="#fce7d4" stroke="#020202" stroke-miterlimit="10" stroke-width="0.75"/><path id="face-2" data-name="face" d="M80.26,55.91s-.54,9.19-.73,9.94a12.59,12.59,0,0,1-1.47,3.56,68.55,68.55,0,0,1-5.5,7.52c-1,1-3.11,4.12-4.29,4.46a28.11,28.11,0,0,1-5.85.94c-1.25-.07-5.76-.67-6.75-1.27s-4.39-4.64-7.19-8.37S44.21,65.92,44,65a42.77,42.77,0,0,1-.26-4.33l-.49.12s-.06.95-.89,1.06c-1.19.15-1.91-1.35-2.22-2.27-.51-1.53-.29-3.22-.84-4.75s-3.07-6.88-1.06-8.24c1.75-1.19,3.31.49,3.88,2.09a15.67,15.67,0,0,1,.44,1.63l.34-.09s0-3,0-5.06c.09-3.88-1.1-8.22.35-12C48.06,20.79,52.58,20.32,63.69,20c9.91-.33,15.47,7.72,16.22,11.4a36.53,36.53,0,0,1,.87,9c-.14,2.73-.51,9.53-.51,9.53l.32.06a28.45,28.45,0,0,1,1.32-3.32,1.72,1.72,0,0,1,3.18,1.29c-.29,1.07-.82,4.14-1,5.38A15.43,15.43,0,0,0,84,56c0,.83-.36,3.7-1.57,3.67C81.73,59.63,79.88,59.68,80.26,55.91Z" fill="#fce7d4" stroke="#020202" stroke-miterlimit="10" stroke-width="0.75"/><path id="Sweater-4" data-name="Sweater" d="M2.15,125.48s.29-1.13,1-4.53S8.4,106,10.79,103s6-4.53,8.49-5.74,27.08-14.1,27.08-14.1a29.56,29.56,0,0,0,16.06,5c9.28,0,17-5.58,17-5.58,0-.71,19.57,11.74,25.33,14.35a27.41,27.41,0,0,1,12.61,11.82c2.37,4.53,5,16.43,5,16.43" fill="#fff" stroke="#020202" stroke-miterlimit="10" stroke-width="0.75"/><path d="M54.75,125.86c1-3.49.92-7.16,1.45-10.73s1.32-7.39,1.88-11.1c.23-1.52.91-7.57.86-8.06s2.44-.49,3.32-.55c1.68-.13,3.1,0,3.43,1s1.39,6.13,1.72,8.37c.7,4.77,1.42,9.56,2.34,14.29.24,1.23.55,2.45.79,3.67.14.68.76,2.42.37,3.07" fill="#fcd8d6" stroke="#020202" stroke-miterlimit="10" stroke-width="0.75"/><path d="M67.89,90.63a1.06,1.06,0,0,1-.23.61A20.18,20.18,0,0,1,66.18,93a1.86,1.86,0,0,0-.62,1.44,4.06,4.06,0,0,0,.37.86.7.7,0,0,1-.17.85.94.94,0,0,1-.34.08,38,38,0,0,1-6.66.13.88.88,0,0,1-.45-.11c-.36-.24-.22-.8,0-1.17s.55-.78.4-1.19a1.19,1.19,0,0,0-.52-.52c-.76-.51-1.64-.63-2.4-1.13a2.78,2.78,0,0,1-.84-.76c-.92-1.39,0-3.1,7-3.44,6.11-.29,2.34.36,3.52.92a12,12,0,0,1,1.84,1C67.67,90.23,67.87,90.4,67.89,90.63Z" fill="#fcd8d6" stroke="#020202" stroke-miterlimit="10" stroke-width="0.75"/><path id="Collar-2" data-name="Collar" d="M46.36,83.18a6.53,6.53,0,0,0,.67-2,7.08,7.08,0,0,1,.7-2.5c.39-.43,1.64-.5,1.64-.5s-1,1.49-.46,2a24.37,24.37,0,0,0,3.9,3c1.58.93,8.39,4.45,9.13,4.79s-.09.51-.52.54-3.48.36-4.51,1.47-7.28,8.17-7.28,8.17S45.83,83.7,46.36,83.18Z" fill="#fff" stroke="#020202" stroke-miterlimit="10" stroke-width="0.75"/><path id="collar-3" data-name="collar" d="M76,77.87s.75-.34.95.32.39,2,.45,2.32A22.2,22.2,0,0,0,80.3,83l-3,14.39s-6.61-4.84-9.12-6.17-5.92-2.8-5.77-3,13-6.82,13.62-9.62a.81.81,0,0,0,0-.38Z" fill="#fff" stroke="#020202" stroke-miterlimit="10" stroke-width="0.75"/><path id="Eye" d="M56.71,46.24c0,1.37-.56,2.48-1.26,2.48s-1.26-1.11-1.26-2.48,0-2.47,1.26-2.47C56.31,43.77,56.71,44.88,56.71,46.24Z" fill="#fff" stroke="#020202" stroke-miterlimit="10" stroke-width="0.75"/><path id="Eye-2" data-name="Eye" d="M72.94,45.8c0,1.47-.56,2.66-1.26,2.66s-1.26-1.19-1.26-2.66,0-2.67,1.26-2.67C72.54,43.13,72.94,44.32,72.94,45.8Z" fill="#fff" stroke="#020202" stroke-miterlimit="10" stroke-width="0.75"/><path d="M80.3,25a4,4,0,0,0-.49,0c.32.24.53-.39.41-.76-1.62-4.94-6-8.67-10.92-10.35-5.25-1.8-12.83-2.29-17.63.85A24.85,24.85,0,0,0,41.9,27.09c-.6,1.66-1,3.38-1.75,5A7.74,7.74,0,0,1,36.73,36a4.22,4.22,0,0,1-4.87-.7A6,6,0,0,0,39.35,43l.14,3.11a6,6,0,0,1,3.2,3.26c1.11-1.94.76-4.43,1.73-6.45.82-1.71,2.57-3,2.7-4.92.2-2.78-3.29-5.2,3.2-8.76a1.11,1.11,0,0,1,.47-.14c2.19-.1,4.12,1.31,6.06,2.35A17.12,17.12,0,0,0,67.6,33.33a14.12,14.12,0,0,0,9.25-5.62A16.5,16.5,0,0,0,76.19,35c.4,2.42,1.58,4.63,2.54,6.89A15.56,15.56,0,0,1,80.43,48a.29.29,0,0,0,.55.16c.3-.51.52-1.06.79-1.61a14,14,0,0,0,.9-2.24A20.25,20.25,0,0,0,82,30.86a1.59,1.59,0,0,1-.19-.79c.07-.68,1-.95,1.61-.64A3.17,3.17,0,0,1,84.62,31a4.49,4.49,0,0,0-4.32-6Z" fill="#262626" stroke="#020202" stroke-miterlimit="10" stroke-width="0.75"/><path d="M43.78,58.5h.33s.71,3.72,1.59,6.78S47.5,70,49.53,71s2.57.66,3.12,1.53,1,4.82,1.86,5.36,6.18.88,6.34,0a12.85,12.85,0,0,0,0-3.88,7.29,7.29,0,0,0-1.09-1.26V72l5,.11v.66s-1.2.49-1.2,1.2a28.57,28.57,0,0,0,.11,3.94c.16.33,5.79.27,6.23,0s.66-3.39,1.15-4.27a3.21,3.21,0,0,1,1.7-1.8A23.76,23.76,0,0,0,76.28,70a18.44,18.44,0,0,0,2.35-4.91C79.12,63.53,80,58.5,80,58.5h.55s-.29,8.62-.33,12.42c0,5.15,1,11.63-4.15,14.22s-6.23,3-13.62,3c-9.93,0-13-3.48-16.11-11a34.42,34.42,0,0,1-2.53-13.7Z" fill="#262626" stroke="#020202" stroke-miterlimit="10" stroke-width="0.75"/><path id="mustache" d="M62.85,63.55a.7.7,0,0,0,.38-.13A3.29,3.29,0,0,1,65,62.83a2.45,2.45,0,0,1,1.16.58c1.13.91,5.14,4.82,6.71,2.91.63-.77.61-3.27.84-4.25.07-.31.21-1.1.54-.91s.17.83.19,1.05c0,.48,0,2.35.06,2.83a5.67,5.67,0,0,1-.4,2.8c-1.79,3.45-6.41,2.16-8.89.78a8,8,0,0,1-2.55-3,10.23,10.23,0,0,1-3.56,2.74,11.91,11.91,0,0,1-4.43,1.24,3.56,3.56,0,0,1-3.14-1c-.78-1-.61-2.65-.49-3.88a26.31,26.31,0,0,1,.78-4.71c.14-.39.25-.08.27.22.16,2.15-.88,7,2.41,6.09a6.49,6.49,0,0,0,3.07-1.93c.82-.84,1.9-1.84,3.1-1.8a3.9,3.9,0,0,1,1.78.77A.82.82,0,0,0,62.85,63.55Z" fill="#262626" stroke="#020202" stroke-miterlimit="10" stroke-width="0.75"/><path d="M64.49,49.64s2.07,8.13,2.15,8.85,1.16,3.37.83,3.78-.34,1.45-1.09,1.61a15.28,15.28,0,0,1-2.83-.09,4.1,4.1,0,0,1-1.42-.5s-1.13.32-1.49.12a1.74,1.74,0,0,1-.73-1.28,5,5,0,0,1,.91-1.39" fill="#fce7d4" stroke="#020202" stroke-miterlimit="10" stroke-width="0.75"/><rect x="27.12" y="110.26" width="71.57" height="17.16" fill="#7f500b" stroke="#020202" stroke-miterlimit="10" stroke-width="0.75"/><polygon points="39.75 112.54 31.53 112.54 31.53 90.93 39.75 86.64 39.75 112.54" fill="#7f500b" stroke="#020202" stroke-miterlimit="10" stroke-width="0.75"/><polygon points="84.9 112.54 93.12 112.54 93.12 90.59 84.9 85.58 84.9 112.54" fill="#7f500b" stroke="#020202" stroke-miterlimit="10" stroke-width="0.75"/></g></svg>